# xmcd
#
# Track frame offsets:
#	150
#	14111
#	31187
#	53614
#	80560
#	96734
#	115789
#	132031
#	153465
#	176119
#
# Disc length: 2549 seconds
#
# Revision: 20
# Processed by: cddbd v1.5.2PL0 Copyright (c) Steve Scherf et al.
# Submitted via: Jack! The Knife 20 Magnifico
#
DISCID=8109f30a
DTITLE=Metal Church - The Dark
DYEAR=1986
DGENRE=Metal
TTITLE0=Ton Of Bricks
TTITLE1=Start The Fire
TTITLE2=Method To Your Madness
TTITLE3=Watch The Children Pray
TTITLE4=Over My Dead Body
TTITLE5=The Dark
TTITLE6=Psycho
TTITLE7=Line Of Death
TTITLE8=Burial At Sea
TTITLE9=Western Alliance
EXTD=Mark Dodson
EXTT0=Wayne, Vanderhoof, Wells, Erickson, Arrington
EXTT1=Wayne, Vanderhoof, Wells
EXTT2=Wayne, Vanderhoof, Wells, Dodson
EXTT3=Wayne, Vanderhoof, Wells
EXTT4=Wayne, Vanderhoof, Wells
EXTT5=Wayne, Vanderhoof, Wells
EXTT6=Wayne, Vanderhoof, Wells, Arrington
EXTT7=Wayne, Vanderhoof, Wells, Erickson, Arrington
EXTT8=Wayne, Vanderhoof, Wells
EXTT9=Wayne, Vanderhoof, Wells
PLAYORDER=
